<svg xmlns="http://www.w3.org/2000/svg" viewBox="120 120 560 560" preserveAspectRatio="xMidYMid meet" role="img" aria-label="Rizlum AI">
<g transform="translate(0,800) scale(0.1,-0.1)" fill="#ffffff" stroke="none">
<path d="M4810 6469 c-124 -4 -459 -12 -745 -18 -595 -13 -555 -7 -780 -112
-209 -96 -396 -273 -492 -464 -33 -65 -71 -167 -79 -210 -4 -22 -11 -48 -16
-58 -5 -10 -14 -75 -20 -145 -5 -70 -15 -133 -20 -139 -8 -10 -134 -13 -569
-13 l-559 0 -16 -25 c-13 -20 -15 -42 -10 -127 4 -57 11 -330 17 -608 13 -672
31 -1047 52 -1088 8 -18 19 -46 22 -64 4 -18 13 -44 20 -58 7 -14 26 -52 42
-85 75 -159 214 -322 347 -408 111 -71 119 -76 136 -83 8 -3 35 -14 60 -24 93
-38 159 -54 315 -74 l160 -21 5 -575 c3 -316 7 -576 8 -577 14 -11 90 -12 257
-3 110 5 369 14 575 20 723 20 913 29 970 44 73 20 158 50 195 70 17 9 34 16
38 16 15 0 150 82 202 122 239 186 382 455 401 754 4 60 11 119 15 132 l9 22
554 0 c467 0 557 2 569 14 12 12 14 66 10 328 -2 172 -8 459 -14 638 -6 179
-14 438 -19 575 -9 289 -13 307 -132 540 -165 322 -497 532 -873 552 -55 3
-106 10 -112 15 -10 8 -13 134 -13 567 0 420 -3 560 -12 569 -13 13 -117 14
-498 1z m-26 -395 c14 -5 16 -52 16 -424 0 -367 -2 -421 -16 -434 -8 -9 -19
-16 -24 -16 -21 0 -166 -107 -221 -162 -88 -91 -198 -266 -224 -358 -4 -14
-13 -35 -21 -47 -14 -22 -19 -23 -177 -23 -183 0 -286 13 -304 37 -10 13 -13
94 -13 324 0 169 -3 314 -6 323 -5 14 -41 16 -294 16 -240 0 -290 2 -300 15
-29 35 17 279 68 365 106 176 217 263 417 323 82 25 228 54 300 60 75 7 783 7
799 1z m731 -1283 c142 -31 293 -120 374 -222 57 -72 151 -271 151 -321 0 -13
8 -45 17 -73 15 -43 18 -110 21 -503 2 -340 0 -457 -9 -468 -10 -12 -76 -14
-406 -14 -238 0 -402 4 -413 10 -10 5 -44 49 -75 97 -62 96 -162 198 -253 259
-62 43 -223 124 -246 124 -35 0 -58 35 -62 95 -5 71 13 324 27 378 l10 37 322
0 c238 0 326 3 335 12 9 9 12 89 12 298 0 158 3 290 7 293 9 10 140 8 188 -2z
m-2735 -21 c11 -11 20 -24 20 -30 0 -5 11 -26 25 -47 14 -21 31 -47 38 -57 27
-42 106 -122 172 -175 62 -49 119 -81 293 -164 24 -11 47 -30 52 -41 8 -22 -5
-316 -18 -401 l-7 -50 -322 -5 c-245 -4 -325 -8 -335 -18 -10 -10 -14 -85 -18
-310 l-5 -297 -47 -3 c-25 -2 -73 4 -106 12 -33 9 -71 16 -84 16 -13 0 -41 9
-63 20 -22 11 -43 20 -49 20 -16 0 -119 73 -169 119 -45 42 -88 100 -129 176
-23 43 -45 105 -75 215 l-27 95 -4 459 c-2 252 -1 464 2 472 4 12 76 14 421
14 402 0 416 -1 435 -20z m1408 -585 c18 -6 17 -368 -2 -384 -10 -8 -64 -9
-197 -4 l-184 8 -3 184 c-1 106 2 188 7 195 7 8 62 10 188 8 98 -2 184 -5 191
-7z m-105 -824 c71 -4 100 -10 107 -21 6 -9 10 -152 10 -336 0 -284 2 -323 16
-328 9 -3 146 -6 305 -6 260 0 290 -2 296 -17 9 -22 -23 -244 -40 -279 -76
-157 -122 -219 -212 -285 -54 -40 -81 -55 -192 -107 -17 -8 -49 -18 -70 -22
-21 -4 -65 -16 -98 -25 -52 -16 -120 -18 -524 -22 -383 -4 -465 -3 -472 8 -5
8 -9 195 -9 417 0 449 -5 418 72 458 118 60 275 226 351 369 32 61 67 142 67
158 0 9 10 23 22 31 24 17 178 20 371 7z"/>
</g>
</svg>
