<svg xmlns="http://www.w3.org/2000/svg" width="1200" height="630" viewBox="0 0 1200 630">
  <defs>
    <linearGradient id="bg" x1="0" y1="0" x2="1" y2="1">
      <stop offset="0%" stop-color="#0a0a0a"/>
      <stop offset="100%" stop-color="#15151c"/>
    </linearGradient>
    <linearGradient id="accent" x1="0" y1="0" x2="0" y2="1">
      <stop offset="0%" stop-color="#F2F2F8"/>
      <stop offset="100%" stop-color="#BEBED4"/>
    </linearGradient>
  </defs>
  <rect width="1200" height="630" fill="url(#bg)"/>

  <!-- Fleuret mark, scaled from 59x111 source -->
  <g transform="translate(120, 180) scale(2.43)">
    <path d="M31 0C46.464 0 59 12.536 59 28V68H58C43.0883 68 31 55.9117 31 41V0Z" fill="url(#accent)"/>
    <path d="M28 0C12.536 0 0 12.536 0 28V68H1C15.9117 68 28 55.9117 28 41V0Z" fill="url(#accent)"/>
    <path d="M31 111C46.464 111 59 98.464 59 83V71H45C37.268 71 31 77.268 31 85V111Z" fill="url(#accent)"/>
    <path d="M28 111C12.536 111 0 98.464 0 83V71H14C21.732 71 28 77.268 28 85V111Z" fill="url(#accent)"/>
  </g>

  <!-- Wordmark -->
  <text x="360" y="300" font-family="-apple-system, BlinkMacSystemFont, 'Segoe UI', sans-serif"
        font-size="108" font-weight="700" fill="#F2F2F8" letter-spacing="-3">Fleuret</text>

  <!-- Tagline -->
  <text x="360" y="360" font-family="-apple-system, BlinkMacSystemFont, 'Segoe UI', sans-serif"
        font-size="32" font-weight="400" fill="#9494A8" letter-spacing="-0.5">Incisive offensive security. Infinite scalability.</text>

  <!-- Footer -->
  <text x="360" y="430" font-family="-apple-system, BlinkMacSystemFont, 'Segoe UI', sans-serif"
        font-size="22" font-weight="500" fill="#6B6B7F">Agentic AI pentesting — audit-ready in hours</text>

  <!-- Domain -->
  <text x="120" y="580" font-family="-apple-system, BlinkMacSystemFont, 'Segoe UI', sans-serif"
        font-size="24" font-weight="500" fill="#6B6B7F" letter-spacing="1">fleuret.ai</text>
</svg>
