<svg width="454" height="111" viewBox="0 0 454 111" fill="none" xmlns="http://www.w3.org/2000/svg">
<g clip-path="url(#clip0_1_92)">
<path d="M0 105.074H10.9899V2.70996H0V0H60.3597L69.3206 30.3032H68.6443C64.9247 19.1418 60.4724 11.3846 55.2875 7.03167C50.2152 2.67874 43.5987 2.70996 37.0612 2.70996H22.4869V46.25H27.7959H32.4286C38.5152 46.25 41.6939 46.25 45.6502 45.8733C48.6935 43.083 50.6097 37.7255 51.3987 29.8009H51.9059V71.1539H51.3987C50.6097 63.1177 48.6935 57.7044 45.6502 54.914C42.7195 52.0121 38.2109 50.5611 32.1242 50.5611H22.4869V105.074H33.4768V108.154H0V105.074Z" fill="url(#paint0_linear_1_92)"/>
<path d="M75.1181 104.93H86.1079V2.99902H75.1181V0H97.6054V104.93H108.595V108.154H75.1181V104.93Z" fill="url(#paint1_linear_1_92)"/>
<path d="M152.634 111C145.42 111 138.882 109.549 133.021 106.647C127.16 103.633 122.538 99.4477 119.156 94.0901C115.776 88.733 114.085 82.65 114.085 75.8416C114.085 68.9216 115.663 62.7828 118.818 57.4254C122.087 52.0679 126.427 47.9381 131.837 45.0362C137.248 42.1342 143.109 40.6833 149.421 40.6833C155.17 40.6833 160.523 41.911 165.483 44.3665C170.556 46.7104 174.783 50.1147 178.164 54.5792C181.545 59.0438 183.295 62.8487 184.084 68.7643H126.427C126.202 71.2198 126.089 74.5023 126.089 75.8416C126.089 85.7753 128.456 94.0346 133.19 100.62C138.742 105.977 144.649 106.375 152.878 106.375C158.851 106.375 161.478 105.099 166.775 101.75C172.073 98.2905 176.041 92.5 177.484 90.9095H181.376C179.009 97.495 175.121 102.518 169.71 105.977C164.3 109.326 158.607 111 152.634 111ZM171.408 64.75C170.62 56.2674 169.428 54.3002 165.483 49.0543C160.252 45.0362 156.184 44.3665 149.421 44.3665C142.658 44.3665 138.98 45.0362 133.359 49.0543C129.414 54.3002 127.103 56.2674 126.427 64.75H171.408Z" fill="url(#paint2_linear_1_92)"/>
<path d="M222.373 111C215.046 111 209.354 108.991 205.296 104.973C201.239 100.954 199.21 95.4859 199.21 88.5656V46.25H188.22V42.6923H210.707V91.7466C210.707 97.7734 212.079 101.736 213.995 104.973C217.232 107.149 217.864 107.149 222.373 107.149C226.882 107.149 232.883 104.429 236.265 101.75C239.759 98.9602 241.253 94.9529 243.169 90.9347V46.25H232.179V42.6923H254.666V105.616H265.656V108.154H243.169V97.4386C241.253 101.234 238.547 104.47 235.053 107.149C231.559 109.716 227.333 111 222.373 111Z" fill="url(#paint3_linear_1_92)"/>
<path d="M271.106 105.725H282.096V46.1497H271.106V42.6923H293.593V56.6972C294.72 50.67 296.241 47.6519 298.834 44.0803C301.539 40.5086 305.259 39.4741 309.317 39.4741C311.571 39.4741 314.486 40.5158 317.642 41.1855C320.573 41.8552 322.73 42.6923 324.534 42.6923L329.775 60.2715H329.268C325.886 53.6863 322.674 48.8869 319.631 45.8734C316.587 42.7482 313.15 42.0167 309.317 42.0167C304.921 42.0167 304.523 42.6923 301.122 46.25C298.53 50.4913 294.495 59.7547 293.593 66.7864V105.725H304.583V108.154H271.106V105.725Z" fill="url(#paint4_linear_1_92)"/>
<path d="M371.255 111C364.041 111 357.504 109.549 351.642 106.647C345.781 103.633 341.16 99.4476 337.778 94.09C334.397 88.733 332.706 82.65 332.706 75.8416C332.706 68.9215 334.284 62.7828 337.44 57.4254C340.709 52.0678 345.048 47.9381 350.458 45.0362C355.869 42.1342 361.731 40.6832 368.042 40.6832C373.791 40.6832 379.145 41.911 384.104 44.3665C389.177 46.7103 393.404 50.1146 396.785 54.5791C400.167 59.0437 402.252 64.2337 403.041 70.1493H345.048C344.823 72.6048 344.71 74.5022 344.71 75.8416C344.71 85.7752 347.077 94.0345 351.811 100.62C357.833 105.977 363.027 107.258 371.255 107.258C377.229 107.258 386.202 104.686 389.143 101.75C393.776 97.125 393.141 97.2711 395.395 90.9094H399.997C397.631 97.495 393.742 102.518 388.331 105.977C382.921 109.326 377.229 111 371.255 111ZM391.461 66.0017C390.673 57.519 388.05 54.3002 384.104 49.0543C379.878 45.0362 374.806 44.3665 368.042 44.3665C361.279 44.3665 356.714 46.25 352.082 50.875C348.137 56.1208 345.725 57.519 345.048 66.0017H391.461Z" fill="url(#paint5_linear_1_92)"/>
<path d="M440.305 111C431.851 111 426.328 108.601 423.736 103.801C421.143 99.0018 419.847 92.6952 419.847 84.8824V46.25H406.659V42.6923H419.847V19.2534H431.513V42.6923H454V46.25H431.513V94.0901C431.513 104.917 434.987 108.154 441.524 108.154C444.68 108.154 446.956 106.485 448.759 105.034C448.759 105.034 448.972 105.029 450.325 102.461H454C452.535 105.363 450.788 107.484 448.759 108.823C446.729 110.275 443.912 111 440.305 111Z" fill="url(#paint6_linear_1_92)"/>
</g>
<defs>
<linearGradient id="paint0_linear_1_92" x1="227" y1="0" x2="227" y2="111" gradientUnits="userSpaceOnUse">
<stop stop-color="#F2F2F8"/>
<stop offset="1" stop-color="#F2F2F8"/>
</linearGradient>
<linearGradient id="paint1_linear_1_92" x1="227" y1="0" x2="227" y2="111" gradientUnits="userSpaceOnUse">
<stop stop-color="#F2F2F8"/>
<stop offset="1" stop-color="#F2F2F8"/>
</linearGradient>
<linearGradient id="paint2_linear_1_92" x1="227" y1="4.04588e-06" x2="227" y2="111" gradientUnits="userSpaceOnUse">
<stop stop-color="#F2F2F8"/>
<stop offset="1" stop-color="#F2F2F8"/>
</linearGradient>
<linearGradient id="paint3_linear_1_92" x1="227" y1="-7.65174e-06" x2="227" y2="111" gradientUnits="userSpaceOnUse">
<stop stop-color="#F2F2F8"/>
<stop offset="1" stop-color="#F2F2F8"/>
</linearGradient>
<linearGradient id="paint4_linear_1_92" x1="227" y1="-2.57902e-05" x2="227" y2="111" gradientUnits="userSpaceOnUse">
<stop stop-color="#F2F2F8"/>
<stop offset="1" stop-color="#F2F2F8"/>
</linearGradient>
<linearGradient id="paint5_linear_1_92" x1="227" y1="-2.97798e-05" x2="227" y2="111" gradientUnits="userSpaceOnUse">
<stop stop-color="#F2F2F8"/>
<stop offset="1" stop-color="#F2F2F8"/>
</linearGradient>
<linearGradient id="paint6_linear_1_92" x1="227" y1="5.17755e-06" x2="227" y2="111" gradientUnits="userSpaceOnUse">
<stop stop-color="#F2F2F8"/>
<stop offset="1" stop-color="#F2F2F8"/>
</linearGradient>
<clipPath id="clip0_1_92">
<rect width="454" height="111" fill="white"/>
</clipPath>
</defs>
</svg>
