<svg width="652" height="276" viewBox="0 0 652 276" fill="none" xmlns="http://www.w3.org/2000/svg">
<path fill-rule="evenodd" clip-rule="evenodd" d="M115.046 92.7649V140.938L91.6449 127.652C90.187 121.645 87.5362 116.208 81.8369 113.197C62.9277 103.215 45.2555 128.704 61.5875 142.56C67.331 147.427 73.5309 147.529 80.5998 145.863L114.987 165.799L114.957 265.024C112.498 266.398 110.731 268.985 109.479 271.469C109.293 271.839 108.994 272.753 108.723 273.582C108.458 274.394 108.219 275.124 108.139 275.182C107.955 275.308 107.36 275.028 107.067 274.89L107.034 274.875L9.64606 219.072C4.0646 215.17 0.69216 209.163 0 202.425V80.6486C0.544892 73.4578 3.87315 67.4946 9.80806 63.373L115.429 2.85003C122.277 -0.95001 130.553 -0.95001 137.401 2.85003L242.757 63.1976C248.824 67.3484 252.285 73.3262 252.815 80.6486V202.031C252.182 209.748 247.985 216.573 241.137 220.286L143.675 276C143.273 275.173 142.957 274.342 142.641 273.513C142.17 272.274 141.7 271.04 140.95 269.832C140.285 268.761 139.501 267.941 138.725 267.128C137.955 266.322 137.193 265.524 136.562 264.498L136.621 210.347L171.111 190.704C176 191.727 179.431 192.297 184.335 190.543C198.12 185.632 200.255 166.471 187.914 158.754C175.75 151.139 161.818 159.236 159.727 172.58L136.576 185.691V92.7649C136.576 92.6278 137.396 91.8404 138.262 91.0079C139.058 90.2421 139.895 89.4383 140.17 89.0671C150.67 74.9339 136.311 55.7145 119.405 61.6191C107.903 65.6384 104.089 80.2686 111.629 89.7102C112.005 90.1762 112.946 90.9434 113.746 91.5953C114.451 92.1702 115.046 92.6553 115.046 92.7649ZM508.693 61.9261H486.544V46.2144H508.693L509.297 46.8136V61.3268L508.693 61.9261ZM651.982 125.986L651.985 126.015L652 125.986H651.982ZM452.408 67.3631V76.0301H452.422L454.469 73.0193C461.199 64.8638 471.641 64.9515 481.302 66.983C481.089 67.7338 480.604 69.8483 480.007 72.4569L480.002 72.4753C478.61 78.5496 476.607 87.2878 476 87.7371C475.863 87.8389 474.338 87.3749 472.887 86.9331C471.836 86.6134 470.824 86.3054 470.404 86.2317C461.671 84.7117 453.218 86.1294 452.408 96.3895C451.936 102.411 452.172 110.83 452.408 116.983C452.461 118.463 452.642 120.04 452.824 121.62C452.996 123.113 453.168 124.61 453.232 126.03H429.655L430.494 113.753C430.43 108.915 430.454 104.076 430.477 99.2382C430.529 88.3944 430.581 77.5575 429.655 66.7638H451.804L452.408 67.3631ZM357.302 66.7638H380.467L380.497 66.7492C379.987 75.4116 380.043 84.0958 380.099 92.7813C380.122 96.391 380.146 100.001 380.128 103.61C382.337 115.054 395.739 109.193 398.287 101.14C398.301 98.9129 398.325 96.6846 398.349 94.4556V94.425C398.447 85.1935 398.546 75.9503 397.977 66.7638H420.539C420.966 66.7638 421.172 67.6992 421.172 68.1523C421.163 69.5357 420.934 71.2234 420.709 72.8744C420.549 74.0489 420.391 75.2056 420.318 76.2201C420.436 82.0163 420.382 87.8232 420.328 93.6297C420.227 104.455 420.126 115.281 421.143 126.03H398.993C398.254 126.03 398.325 123.618 398.376 121.903C398.396 121.226 398.412 120.657 398.375 120.388C393.677 124.218 388.14 127.17 381.925 127.652C366.918 128.836 358.745 121.543 357.729 106.869C357.285 100.616 357.456 94.066 357.627 87.5255C357.763 82.3578 357.898 77.1916 357.729 72.1862C357.707 71.5479 357.595 70.8892 357.48 70.2177C357.288 69.0906 357.09 67.9269 357.302 66.7638ZM509.385 123.255C509.512 124.203 509.636 125.138 509.724 126.015L509.739 126.03H486.161V66.7638H509.12C509.268 66.7638 509.798 67.3484 509.651 67.67C509.573 68.3866 509.457 69.1676 509.34 69.9629C509.146 71.2752 508.945 72.6298 508.9 73.7939C508.325 87.8394 508.325 104.53 508.9 118.576C508.955 120.033 509.172 121.662 509.385 123.255ZM313.784 152.396C330.543 149.269 348.171 155.276 352.015 173.18V173.194L331.898 176.848C331.211 176.773 330.746 175.467 330.296 174.202C330.042 173.49 329.794 172.79 329.512 172.332C327.436 168.97 324.314 168.283 320.5 168.751C309.057 170.154 309.337 196.959 320.956 198.552C326.788 199.356 330.602 196.345 331.957 190.894L352.427 193.744C350.616 206.079 339.306 214.644 327.038 215.521C310.75 216.69 295.773 210.902 291.164 194.226C286.157 176.161 293.903 156.123 313.784 152.396ZM595.891 163.088V154.238H573.123V213.095H596.701C596.318 210.932 595.95 208.228 595.861 206.065C595.655 200.642 595.081 183.571 596.612 179.362C599.779 170.637 612.429 173.033 619.424 174.773L624.77 154.486C615.801 151.622 604.226 152.338 597.923 160.099L595.891 163.088ZM354.445 154.238H378.832L378.847 154.223C378.911 154.287 379 154.932 379.102 155.68C379.211 156.479 379.336 157.395 379.466 157.848C381.135 163.659 383.329 169.34 385.517 175.008C386.786 178.292 388.053 181.575 389.215 184.872L400.392 154.223H424.78L397.211 217.392C390.452 232.796 372.691 232.65 358.524 229.201L360.748 212.276C361.088 211.836 361.183 211.912 361.351 212.048C361.423 212.105 361.508 212.174 361.632 212.218C362.133 212.399 362.628 212.626 363.125 212.856C364.075 213.293 365.036 213.735 366.079 213.869C371.705 214.6 375.769 212.934 377.242 207.248L354.636 155.466L354.445 154.238ZM502.803 225.591H506.867V231.203L512.184 230.969C512.699 231.335 512.743 234.433 512.567 234.433H506.882V248.347C506.882 249.487 511.3 248.757 512.154 248.552L512.979 251.767L512.974 251.769C510.308 252.412 505.776 253.505 503.834 250.964C503.642 250.73 502.803 248.874 502.803 248.757V234.448L497.928 234.214V230.823L502.803 231.233V225.591ZM596.288 235.88C596.259 236.406 592.621 237.093 592.283 236.845L592.268 236.83C592.222 236.796 592.164 236.618 592.09 236.387C591.975 236.03 591.82 235.547 591.605 235.281C588.027 230.896 580.428 235.676 584.212 238.219C585.352 238.981 587.117 239.365 588.965 239.766C592.183 240.465 595.654 241.218 596.524 244.123C599.631 254.501 580.163 255.261 578.837 247.12C578.543 245.322 582.563 245.556 582.843 245.804C582.901 245.855 582.928 246.059 582.96 246.306C583.003 246.627 583.055 247.02 583.196 247.251C585.965 251.709 595.302 248.874 592.592 244.796C591.905 243.755 589.963 243.358 587.781 242.912C583.928 242.124 579.33 241.184 579.603 236.275C579.956 229.8 590.825 228.982 594.492 232.84C594.816 233.176 596.288 235.705 596.288 235.88ZM476.383 252.191V231.233H480.433L480.639 234.053C483.864 228.982 494.291 229.698 495.086 236.26C495.336 238.318 495.237 240.727 495.139 243.111C495.07 244.791 495.002 246.459 495.056 247.982C495.074 248.522 495.185 249.062 495.296 249.608C495.469 250.45 495.644 251.305 495.483 252.191H491.007C491.029 251.918 491.053 251.641 491.076 251.358C491.422 247.256 491.846 242.229 491.419 238.277C490.83 232.738 485.41 232.826 482.274 236.465C481.817 236.991 480.447 238.979 480.447 239.49V252.191H476.383ZM553.36 230.896C554.464 231.247 553.375 234.726 553.213 234.872C553.148 234.932 552.804 234.869 552.292 234.775C550.937 234.527 548.4 234.062 546.733 235.091C544.73 236.348 544.052 238.453 543.861 240.703C543.552 244.284 543.846 248.64 544.273 252.206H539.796V231.233H543.861L544.067 233.659C545.466 231.013 550.827 230.093 553.36 230.896ZM429.64 231.437L434.5 231.262L434.515 231.247C434.546 231.279 434.575 231.536 434.612 231.862C434.66 232.296 434.723 232.853 434.824 233.162C436.002 236.845 437.637 241.054 439.109 244.635C439.194 244.836 439.273 245.064 439.355 245.301C439.631 246.099 439.945 247.004 440.626 247.354L446.104 231.627C446.511 231.08 447.929 231.157 449.167 231.225C449.812 231.26 450.409 231.293 450.788 231.233L441.996 252.147H438.226L429.64 231.437ZM515.409 231.233H519.886V246.769C519.886 246.974 520.976 248.391 521.285 248.596C524.539 250.744 528.707 247.894 530.106 244.825C531.183 242.472 531.011 237.942 530.898 234.951L530.886 234.633C530.881 234.504 530.876 234.379 530.872 234.258C530.86 233.998 530.759 233.506 530.654 232.993C530.492 232.206 530.32 231.371 530.445 231.247C530.577 231.116 533.803 231.174 534.318 231.247C534.483 231.267 534.607 231.258 534.7 231.251C534.945 231.232 534.965 231.23 534.922 231.846V252.206H530.857L530.651 248.976C528.059 252.674 521.624 253.828 518.104 250.934C515.376 248.681 515.595 243.763 515.803 239.104C515.936 236.117 516.065 233.237 515.409 231.233Z" fill="#121212"/>
<path d="M115.046 140.938L91.6449 127.652C90.187 121.645 87.5362 116.208 81.8369 113.197C62.9129 103.215 45.2555 128.705 61.5875 142.56C67.3162 147.427 73.5309 147.515 80.5998 145.863L114.987 165.799L114.957 265.024C112.483 266.398 110.731 268.985 109.479 271.469C109.111 272.215 108.301 275.065 108.139 275.182C107.948 275.313 107.314 275.006 107.034 274.875L9.64606 219.072C4.07933 215.17 0.692099 209.178 0.0146654 202.425V80.6486C0.559557 73.4577 3.88782 67.48 9.82272 63.373L115.443 2.85003C122.291 -0.95001 130.568 -0.95001 137.416 2.85003L242.801 63.1976C248.854 67.3338 252.314 73.3262 252.859 80.6486V202.031C252.226 209.733 248.029 216.573 241.181 220.286L143.719 276C142.703 273.939 142.231 271.849 140.994 269.832C139.669 267.698 137.872 266.558 136.606 264.498L136.665 210.347L171.155 190.704C176.044 191.727 179.461 192.297 184.38 190.543C198.164 185.632 200.299 166.471 187.958 158.754C175.779 151.139 161.862 159.236 159.771 172.58L136.621 185.69V92.7649C136.621 92.5018 139.625 89.8418 140.214 89.0671C150.714 74.9339 136.341 55.7145 119.449 61.6191C107.947 65.6384 104.133 80.2686 111.673 89.7102C112.38 90.5872 115.09 92.5456 115.09 92.7649V140.938H115.046Z" fill="#121212"/>
<path d="M581.872 66.7638C582.196 66.8515 582.402 67.2899 582.402 67.6699C582.446 69.2484 581.725 71.7331 581.651 73.3992C581.032 87.6786 582.579 102.806 581.68 116.968C580.723 132.051 572.564 140.397 557.764 142.838C544.554 145.015 526.514 143.598 517.457 132.724L533.156 122.449C536.145 124.787 538.398 126.6 542.227 127.448C551.358 129.464 559.87 127.638 559.708 116.764C551.593 123.75 536.292 123.37 527.383 117.977C512.126 108.74 511.757 81.6716 525.365 70.8123C533.907 63.9868 551.343 62.7591 559.693 70.403C559.693 69.7307 559.458 66.7784 560.312 66.7784H581.857L581.872 66.7638ZM548.604 80.6193C533.185 80.6485 533.612 106.869 548.53 106.84C563.449 106.81 562.918 80.5901 548.604 80.6193Z" fill="#121212"/>
<path d="M452.821 133.674C451.775 141.961 451.996 150.321 452.01 158.666C462.982 149.371 483.408 149.824 492.863 161.078C502.98 173.107 501.64 198.216 489.593 208.637C479.682 217.216 462.113 217.479 452.01 209.046V213.08H429.655V133.659H452.821V133.674ZM462.069 169.657C447.784 171.704 448.285 200.642 467.562 197.675C479.196 195.878 480.934 173.881 469.889 170.169C467.621 169.409 464.469 169.321 462.084 169.657H462.069Z" fill="#121212"/>
<path d="M348.761 126.015H326.406L326.2 121.178C320.294 128.588 305.45 128.865 297.144 125.811C287.969 122.434 283.86 112.686 285.937 103.42C289.486 87.6056 313.829 88.3948 326.406 87.7225C328.379 77.4186 312.15 77.6232 310.309 86.1294L288.602 82.6655C291.253 73.6331 298.219 68.5031 307.231 66.4715C318.704 63.8846 340.426 63.9138 346.272 76.2639C350.322 84.7994 348.01 109.09 348.334 119.774C348.393 121.733 349.129 123.896 348.761 126.001V126.015ZM326.406 100.628C322.002 101.33 309.765 100.803 308.307 106.255C305.774 115.828 322.002 114.805 325.537 107.629C326.7 105.276 326.421 103.171 326.391 100.628H326.406Z" fill="#121212"/>
<path d="M651.985 126.015L629.631 126.015V121.178C622.444 129.143 605.199 129.406 596.584 123.925C590.722 120.198 588.042 112.847 588.631 106.109C590.251 87.6203 615.949 88.3949 629.631 87.7226C631.324 79.1286 619.278 77.5648 614.992 83.0894C614.241 84.0541 613.961 85.8956 612.754 86.1295C610.486 85.6326 592.033 83.7033 591.841 82.6656C591.65 81.5548 594.964 75.7671 595.891 74.6417C604.33 64.3815 624.417 63.7385 636.375 66.72C646.552 69.2631 650.94 75.6794 651.588 85.9103C652.413 99.0496 650.66 112.861 651.971 126.045L651.985 126.015ZM629.631 100.628C624.609 101.505 616.465 100.57 612.547 104.443C609.676 107.278 611.664 112.496 615.64 113.095C623.681 114.323 631.103 109.222 629.631 100.628Z" fill="#121212"/>
<path d="M567.027 189.315H525.159C525.645 196.857 531.285 199.473 538.339 198.552C542.507 198.011 544.701 195.293 546.483 191.844L566.217 197.164C560.135 212.32 545.806 216.924 530.298 215.462C496.25 212.232 493.305 161.224 525.571 152.82C535.335 150.277 547.882 151.797 555.835 158.272C564.833 165.579 567.189 178.295 567.027 189.3V189.315ZM545.084 176.015C543.641 165.799 527.397 166.486 525.173 176.015H545.084Z" fill="#121212"/>
<path d="M380.467 66.7638C379.731 79.0117 380.143 91.3326 380.099 103.624C382.308 115.054 395.724 109.193 398.257 101.154C398.331 89.6957 398.64 78.1932 397.948 66.7785H420.51C420.922 66.7785 421.143 67.7139 421.143 68.167C421.128 70.5201 420.465 73.7793 420.289 76.2347C420.627 92.838 419.552 109.514 421.113 126.045H398.964C397.948 126.045 398.478 121.353 398.346 120.403C393.648 124.232 388.111 127.185 381.896 127.667C366.889 128.851 358.716 121.558 357.7 106.884C356.919 95.688 358.083 83.5425 357.7 72.2009C357.641 70.4762 356.934 68.6347 357.273 66.7785H380.438L380.467 66.7638Z" fill="#121212"/>
<path d="M378.832 154.238C378.965 154.369 379.201 156.986 379.452 157.863C382.088 167.041 386.034 175.898 389.201 184.887L400.378 154.238H424.766L397.197 217.406C390.438 232.796 372.692 232.65 358.51 229.216L360.734 212.291C361.22 211.662 361.205 212.086 361.617 212.232C363.061 212.759 364.474 213.679 366.065 213.884C371.691 214.629 375.755 212.949 377.228 207.263L354.622 155.48L354.431 154.253H378.818L378.832 154.238Z" fill="#121212"/>
<path d="M352.015 173.18L331.898 176.833C330.823 176.717 330.293 173.589 329.513 172.317C327.436 168.956 324.314 168.269 320.5 168.736C309.057 170.14 309.337 196.944 320.956 198.538C326.788 199.341 330.602 196.331 331.957 190.879L352.428 193.729C350.601 206.079 339.291 214.629 327.039 215.506C310.765 216.675 295.788 210.888 291.164 194.211C286.172 176.147 293.903 156.094 313.784 152.382C330.544 149.239 348.171 155.246 352.015 173.165L352.015 173.18Z" fill="#121212"/>
<path d="M595.891 163.11L597.938 160.099C604.226 152.353 615.816 151.636 624.785 154.486L619.439 174.773C612.444 173.034 599.794 170.637 596.627 179.362C595.096 183.571 595.67 200.657 595.876 206.065C595.965 208.242 596.333 210.946 596.716 213.095H573.138V154.238H595.906V163.11H595.891Z" fill="#121212"/>
<path d="M452.408 76.0301L454.455 73.0193C461.185 64.8638 471.627 64.9515 481.287 66.983C480.581 69.4823 476.855 87.094 475.986 87.7371C475.75 87.9125 471.391 86.4071 470.39 86.2317C461.657 84.7117 453.218 86.1294 452.394 96.3895C451.922 102.411 452.158 110.83 452.394 116.983C452.497 119.862 453.086 123.121 453.218 126.03H429.641L430.48 113.753C430.274 98.0849 430.995 82.3732 429.641 66.7638H451.79L452.394 67.363V76.0301L452.408 76.0301Z" fill="#121212"/>
<path d="M509.724 126.015L486.147 126.015V66.7491H509.106C509.253 66.7491 509.798 67.3338 509.636 67.6553C509.415 69.5699 508.959 71.923 508.885 73.7792C508.311 87.8248 508.311 104.516 508.885 118.561C508.973 120.885 509.489 123.647 509.71 126.001L509.724 126.015Z" fill="#121212"/>
<path d="M486.544 61.9261L486.545 46.1998H508.709L509.313 46.799V61.3123L508.709 61.9261L486.544 61.9261Z" fill="#121212"/>
<path d="M472.319 242.53H456.06C455.898 248.172 462.82 251.972 467.002 247.938C469.152 245.863 467.621 244.737 471.921 246.17C469.02 256.021 453.719 254.603 452.452 243.904C450.405 226.57 472.922 225.956 472.319 242.53ZM468.254 239.3C467.606 231.686 457.12 231.934 456.473 239.3H468.254Z" fill="#121212"/>
<path d="M559.707 242.53C559.192 243.057 560.503 246.374 560.989 247.105C562.447 249.254 564.729 249.648 567.218 249.385C570.944 248.99 571.798 245.351 572.137 245.322C572.741 245.264 575.701 246.33 575.524 247.12C575.495 247.28 573.934 249.487 573.698 249.751C570.178 253.434 563.448 253.682 559.516 250.584C554.185 246.389 554.538 235.281 560.576 231.89C566.614 228.5 574.022 231.525 575.48 238.38C575.612 239.008 576.01 242.516 575.377 242.516C573.271 242.516 560.282 241.96 559.722 242.516L559.707 242.53ZM571.901 239.3C570.546 231.759 561.224 231.92 559.707 239.3H571.901Z" fill="#121212"/>
<path d="M476.383 231.233L480.448 231.233L480.654 234.053C483.879 228.982 494.306 229.698 495.101 236.26C495.528 239.753 494.939 244.299 495.072 247.982C495.116 249.356 495.764 250.744 495.499 252.206H491.022C491.375 247.967 491.891 242.516 491.434 238.292C490.83 232.753 485.426 232.84 482.289 236.48C481.832 237.006 480.463 238.993 480.463 239.505V252.206H476.398V231.247L476.383 231.233Z" fill="#121212"/>
<path d="M519.886 231.233L519.886 246.754C519.886 246.973 520.976 248.377 521.285 248.581C524.54 250.73 528.708 247.88 530.107 244.81C531.27 242.267 530.976 237.181 530.873 234.243C530.843 233.586 530.239 231.437 530.446 231.233C530.578 231.101 533.803 231.159 534.319 231.233C534.908 231.32 534.981 230.999 534.922 231.832V252.191H530.843L530.637 248.961C528.06 252.659 521.609 253.814 518.09 250.92C513.613 247.237 517.059 236.348 515.395 231.233L519.886 231.233Z" fill="#121212"/>
<path d="M592.283 236.845C592.165 236.757 591.974 235.734 591.621 235.296C588.027 230.896 580.428 235.676 584.228 238.233C587.335 240.323 595.17 239.563 596.539 244.138C599.647 254.515 580.178 255.275 578.852 247.134C578.558 245.322 582.578 245.57 582.858 245.819C582.991 245.936 582.961 246.857 583.212 247.266C585.995 251.724 595.317 248.888 592.607 244.81C590.693 241.931 579.191 243.977 579.618 236.289C579.972 229.815 590.84 228.996 594.507 232.855C594.831 233.191 596.318 235.719 596.304 235.895C596.274 236.421 592.637 237.108 592.298 236.859L592.283 236.845Z" fill="#121212"/>
<path d="M506.867 225.591L506.868 231.233L512.184 230.999C512.685 231.35 512.744 234.463 512.567 234.463H506.882V248.377C506.882 249.517 511.3 248.786 512.154 248.581L512.979 251.797C510.314 252.44 505.778 253.536 503.834 250.993C503.657 250.759 502.803 248.903 502.803 248.786V234.477L497.914 234.243V230.853L502.803 231.262V225.62H506.868L506.867 225.591Z" fill="#121212"/>
<path d="M434.5 231.262C434.5 231.262 434.633 232.636 434.81 233.177C436.003 236.86 437.623 241.069 439.095 244.65C439.463 245.527 439.728 246.915 440.612 247.368L446.09 231.642C446.709 230.823 449.669 231.423 450.774 231.247L441.982 252.162H438.212L429.626 231.452L434.486 231.277L434.5 231.262Z" fill="#121212"/>
<path d="M553.213 234.872C552.962 235.091 549.03 233.659 546.733 235.091C544.715 236.333 544.052 238.453 543.861 240.703C543.552 244.284 543.861 248.654 544.273 252.206H539.796L539.796 231.247H543.861L544.067 233.673C545.466 231.028 550.827 230.107 553.36 230.911C554.479 231.262 553.374 234.74 553.213 234.886L553.213 234.872Z" fill="#121212"/>
</svg>
