<svg width="248" height="60" viewBox="0 0 248 60" fill="none" xmlns="http://www.w3.org/2000/svg">
<path d="M68.231 43.1658C70.9175 43.1658 73.3832 42.4666 75.5545 41.1417V31.0949H71.3959V38.676C70.4023 39.0441 69.4454 39.1545 68.3782 39.1545C64.6612 39.1545 62.6004 36.836 62.6004 30.7637C62.6004 24.8755 64.6244 22.5938 68.3782 22.5938C70.0342 22.5938 71.7271 23.0722 73.2728 23.9555L75.1128 20.3489C73.0152 19.0977 70.8071 18.5825 68.3046 18.5825C61.8275 18.5825 58.0002 22.8146 58.0002 30.7637C58.0002 39.2649 61.7907 43.1658 68.231 43.1658Z" fill="#F7FAFF"/>
<path d="M82.5479 21.9682C84.2039 21.9682 85.0872 20.9009 85.0872 19.5025C85.0872 18.1408 84.2039 17 82.5479 17C80.9286 17 80.0086 18.1408 80.0086 19.5025C80.0086 20.9009 80.9286 21.9682 82.5479 21.9682ZM84.7192 24.4339H80.3766V42.7978H84.7192V24.4339Z" fill="#F7FAFF"/>
<path d="M101.482 24.4339H95.9614V19.8337H92.7965L91.9133 24.4339L88.4171 24.9491V28.0772H91.6925V37.02C91.6925 41.1785 93.9373 43.1658 97.6175 43.1658C99.2736 43.1658 100.893 42.7242 102.291 41.9514L101.077 38.5288C100.01 39.0441 99.0896 39.2649 98.2063 39.2649C96.6975 39.2649 95.9614 38.6392 95.9614 36.836V28.0772H101.482V24.4339Z" fill="#F7FAFF"/>
<path d="M115.275 43.1658C117.961 43.1658 120.427 42.4666 122.598 41.1417V31.0949H118.44V38.676C117.446 39.0441 116.489 39.1545 115.422 39.1545C111.705 39.1545 109.644 36.836 109.644 30.7637C109.644 24.8755 111.668 22.5938 115.422 22.5938C117.078 22.5938 118.771 23.0722 120.317 23.9555L122.157 20.3489C120.059 19.0977 117.851 18.5825 115.349 18.5825C108.872 18.5825 105.044 22.8146 105.044 30.7637C105.044 39.2649 108.835 43.1658 115.275 43.1658Z" fill="#F7FAFF"/>
<path d="M127.273 24.4339V36.9832C127.273 40.9945 129.261 43.1658 132.757 43.1658C134.56 43.1658 136.179 42.577 138.387 40.5897V42.7978H142.583V24.4339H138.24V37.4616C136.547 38.7496 135.186 39.1913 134.082 39.1913C132.426 39.1913 131.616 38.3816 131.616 36.3943V24.4339H127.273Z" fill="#F7FAFF"/>
<path d="M162.325 42.7978V30.9109C162.325 26.0531 159.859 24.0659 155.406 24.0659C153.161 24.0659 150.549 24.7283 147.899 26.0163L149.224 29.4389C151.579 28.3716 153.309 27.93 154.744 27.93C157.136 27.93 158.093 28.8501 158.093 31.2053V32.2726H153.934C149.371 32.2726 147.273 34.7015 147.273 37.7192C147.273 41.0313 149.629 43.1658 152.83 43.1658C154.891 43.1658 156.621 42.5034 158.203 40.7737V42.7978H162.325ZM154.008 39.7433C152.425 39.7433 151.469 38.9704 151.469 37.4616C151.469 36.2103 152.241 35.2903 154.192 35.2903H158.093V38.0136C156.621 39.2649 155.406 39.7433 154.008 39.7433Z" fill="#F7FAFF"/>
<path d="M172.087 42.7978V29.9541C174 28.7029 175.877 28.298 178.306 28.298V24.0659C176.098 24.0659 174.258 24.6547 171.939 26.8628V24.4339H167.744V42.7978H172.087Z" fill="#F7FAFF"/>
<path d="M197.282 42.7978V17.8464H192.939V24.9491C191.688 24.3603 190.437 24.0659 189.075 24.0659C184.659 24.0659 181.163 26.826 181.163 33.671C181.163 40.6633 184.217 43.1658 188.081 43.1658C189.922 43.1658 191.541 42.5034 193.123 40.8105V42.7978H197.282ZM189.333 39.3017C186.757 39.3017 185.542 37.9768 185.542 33.671C185.542 29.1445 186.867 27.746 189.848 27.746C190.805 27.746 191.872 27.9668 192.939 28.4084V37.94C191.688 38.9704 190.474 39.3017 189.333 39.3017Z" fill="#F7FAFF"/>
<path d="M205.099 21.9682C206.756 21.9682 207.639 20.9009 207.639 19.5025C207.639 18.1408 206.756 17 205.099 17C203.48 17 202.56 18.1408 202.56 19.5025C202.56 20.9009 203.48 21.9682 205.099 21.9682ZM207.271 24.4339H202.928V42.7978H207.271V24.4339Z" fill="#F7FAFF"/>
<path d="M227.051 42.7978V30.9109C227.051 26.0531 224.585 24.0659 220.132 24.0659C217.887 24.0659 215.275 24.7283 212.625 26.0163L213.95 29.4389C216.305 28.3716 218.035 27.93 219.47 27.93C221.862 27.93 222.819 28.8501 222.819 31.2053V32.2726H218.66C214.097 32.2726 211.999 34.7015 211.999 37.7192C211.999 41.0313 214.354 43.1658 217.556 43.1658C219.617 43.1658 221.347 42.5034 222.929 40.7737V42.7978H227.051ZM218.734 39.7433C217.151 39.7433 216.195 38.9704 216.195 37.4616C216.195 36.2103 216.967 35.2903 218.918 35.2903H222.819V38.0136C221.347 39.2649 220.132 39.7433 218.734 39.7433Z" fill="#F7FAFF"/>
<path d="M236.813 42.7978V29.8069C238.579 28.482 240.051 28.0404 241.192 28.0404C242.848 28.0404 243.658 28.8869 243.658 30.8741V42.7978H248V30.2485C248 26.2372 246.013 24.0659 242.517 24.0659C240.677 24.0659 238.947 24.6547 236.665 26.6788V24.4339H232.47V42.7978H236.813Z" fill="#F7FAFF"/>
<path d="M38.681 44.8717C41.771 39.9988 43.5698 33.7265 43.5698 27.3207V24.2119C43.5698 23.0183 43.0147 21.9321 42.0475 21.2311L39.8426 19.601C39.267 21.6123 38.1979 23.7643 36.727 25.51C38.9493 28.9191 40.1222 32.8603 40.1222 36.953C40.1222 39.5475 39.5995 42.2761 38.681 44.8717Z" fill="#F7FAFF"/>
<path d="M24.0019 55.5891C25.8162 55.5866 27.9136 54.7813 30.3426 53.1552C34.5231 49.7359 37.648 42.84 37.648 36.953C37.648 33.5285 36.7167 30.2253 34.9502 27.3284C32.2262 29.7127 28.7807 31.1074 25.0694 31.331C26.3466 33.9956 27.0399 37.1249 27.0399 40.3298C27.0399 45.8141 24.8746 51.0672 21.06 54.9813C22.1141 55.384 23.0937 55.5881 24.0019 55.5891Z" fill="#F7FAFF"/>
<path d="M4.42985 24.212V27.3207C4.42985 29.8626 4.71407 32.3829 5.24858 34.8035L10.9982 25.072C9.71951 23.4307 8.76971 21.5673 8.19099 19.5759L5.96196 21.2234C4.98441 21.9315 4.42985 23.0183 4.42985 24.212Z" fill="#F7FAFF"/>
<path fill-rule="evenodd" clip-rule="evenodd" d="M26.1689 16.2028C25.3902 17.1455 24.7807 17.8834 23.9993 17.8834C23.2181 17.8834 22.6089 17.1458 21.8306 16.2033C21.5096 15.8147 21.1598 15.3911 20.7573 14.9701C18.2774 12.3392 15.1073 11.6807 12.8022 12.5935C10.8333 13.3732 9.88808 15.1732 10.1497 17.4679C10.6369 20.326 11.9629 22.9246 14.01 24.9528C16.6261 27.5453 20.1374 28.9728 23.9993 28.9728C27.8617 28.9728 31.3731 27.5453 33.9891 24.9528C36.0357 22.9246 37.3617 20.326 37.8495 17.4679C38.1105 15.1732 37.1659 13.3732 35.1964 12.5935C32.8923 11.6807 29.7222 12.3392 27.2419 14.9701C26.8396 15.3909 26.4898 15.8143 26.1689 16.2028ZM14.0535 18.2541C14.0535 16.887 14.9231 15.7747 15.9921 15.7747C17.0611 15.7747 17.9302 16.887 17.9302 18.2541C17.9302 19.6217 17.0611 20.7335 15.9921 20.7335C14.9231 20.7335 14.0535 19.6217 14.0535 18.2541ZM23.994 19.8852C24.9135 19.8852 25.5739 20.5457 25.6381 21.5286C25.6479 21.6749 25.6525 21.8248 25.6525 21.9742C25.6525 23.5399 25.3359 24.8164 24.5938 26.2429L24.5655 26.2976C24.4581 26.5095 24.2957 26.8287 23.994 26.8287C23.6937 26.8287 23.5314 26.5109 23.4234 26.2996L23.4225 26.2976L23.3947 26.2429C22.652 24.8164 22.336 23.5399 22.336 21.9742C22.336 21.8248 22.3406 21.6749 22.3503 21.5286C22.4141 20.5457 23.075 19.8852 23.994 19.8852ZM32.6361 16.3159C33.498 16.4346 34.2484 17.0583 34.5039 17.8672C34.6457 18.3169 34.527 18.761 34.2022 18.9979C33.8881 19.2261 33.4441 19.1995 33.0144 18.9273C32.2378 18.4356 31.5029 18.4781 30.6302 19.0665L30.5572 19.1171L30.5557 19.1182C30.3944 19.2322 30.1751 19.3873 29.9384 19.3873L29.9324 19.3872C29.9302 19.3871 29.9279 19.387 29.9255 19.3868C29.7256 19.3821 29.5493 19.3115 29.4172 19.1826C29.224 18.9948 29.1083 18.6474 29.3627 18.2376C30.2092 16.8689 31.4324 16.1501 32.6361 16.3159Z" fill="#F7FAFF"/>
<path fill-rule="evenodd" clip-rule="evenodd" d="M29.4745 1.23579C31.362 -0.401026 34.2018 -0.42058 36.0947 1.22918L36.1021 1.23566L36.1094 1.24222C41.7163 6.23237 42.4982 12.2894 42.3337 15.9492L44.6724 17.6779C46.7569 19.1921 48 21.6347 48 24.2119V27.3207C48 37.3042 44.0827 47.1772 37.5602 53.058C32.606 57.5251 28.2478 59.9926 24.0057 60H23.999C19.7529 59.9926 15.3948 57.5253 10.4398 53.058C3.91797 47.1773 0 37.3043 0 27.3207V24.2119C0 21.6322 1.24559 19.1906 3.33738 17.6707L5.67002 15.9464C5.4966 12.4079 6.14966 6.38197 11.8854 1.24694L11.8948 1.23853L11.9043 1.23025C13.7968 -0.419312 16.6371 -0.402323 18.5261 1.23583C20.0429 2.5517 21.9869 3.27647 23.9997 3.27647C26.0131 3.27647 27.9571 2.55182 29.4745 1.23579ZM40.3617 16.8483L43.5457 19.2019C45.141 20.3577 46.099 22.2334 46.099 24.2119V27.3207C46.099 36.8721 42.3384 46.1969 36.2839 51.6556C31.4085 56.0517 27.5055 58.1018 24.0019 58.108C20.4941 58.1018 16.5911 56.0517 11.7152 51.6556C5.66129 46.1969 1.90015 36.8721 1.90015 27.3207V24.2119C1.90015 22.2334 2.85868 20.3577 4.46326 19.1947L7.64363 16.8437C7.33474 13.8711 7.418 7.79068 13.1558 2.65375C14.3246 1.63506 16.0967 1.63865 17.2773 2.66245C19.1404 4.27874 21.5277 5.16849 23.9993 5.16849C26.4715 5.16849 28.8588 4.27874 30.7224 2.66245C31.9025 1.63916 33.6741 1.63455 34.8423 2.65273C40.4198 7.61672 40.6865 13.7304 40.3617 16.8483Z" fill="#F7FAFF"/>
</svg>
