<svg xmlns="http://www.w3.org/2000/svg" width="152" height="50" fill="none" viewBox="0 0 152 50">
  <g clip-path="url(#a)">
    <path fill="#fff" d="M105.339 31.51h8.316v1.745h-10.286l-.008-16.513h10.179v1.745h-8.193v5.509h7.129v1.745h-7.137v5.77-.001Zm-14.02-7.667c-2.05-.855-3.092-1.57-3.092-3.111 0-.856.654-2.474 3.128-2.474 1.548 0 2.46.553 3.343 1.088l.151.091 1.084-1.372-.077-.055c-.61-.45-2.268-1.497-4.478-1.497-3.717 0-5.066 2.537-5.066 4.242 0 2.829 1.803 3.819 4.16 4.819 2.61 1.112 4.026 2.016 4.026 3.6 0 1.489-1.276 2.569-3.035 2.569-2.229 0-4.108-1.816-4.315-2.023l-.073-.072-1.129 1.43.058.057c1.084 1.085 3.155 2.352 5.421 2.352 2.828 0 5.13-1.966 5.13-4.383 0-2.894-2.372-4.095-5.235-5.262Zm-14.75 2.765 3.462 6.647h-2.305l-3.191-6.372h-4.273v6.372h-1.981V16.742h6.634a5.078 5.078 0 0 1 5.073 5.073 5.054 5.054 0 0 1-3.42 4.793Zm-1.93-8.117h-4.377v6.647h4.377a3.327 3.327 0 0 0 3.323-3.324 3.327 3.327 0 0 0-3.323-3.323Zm60.513 14.763h-2.189l-1.72-3.873h-9.047l-1.72 3.873h-2.189l7.408-16.513h2.05l.024.054 7.384 16.46-.001-.001Zm-4.685-5.617-3.564-8.017h-.366l-3.565 8.017h7.495ZM60.392 16.741l-6.06 13.63h-.366l-6.06-13.63h-2.19l7.407 16.513h2.048l7.41-16.513h-2.19.001Zm-18.611 8.282c0 4.747-3.729 8.465-8.49 8.465-4.76 0-8.463-3.718-8.463-8.465 0-4.746 3.797-8.51 8.464-8.51 4.666 0 8.489 3.817 8.489 8.51Zm-8.489-6.532c-3.578 0-6.49 2.93-6.49 6.532a6.48 6.48 0 0 0 6.49 6.485c3.58 0 6.515-2.909 6.515-6.485 0-3.577-2.922-6.532-6.515-6.532Z"/>
    <path fill="#49D6CB" d="M16.024 16.741H-.488v5.505h16.512V16.74Z"/>
    <path fill="#00898F" d="M16.024 22.246H-.488v5.505h16.512v-5.505Z"/>
    <path fill="#00555C" d="M16.024 27.75H-.488v5.504h16.512V27.75Z"/>
  </g>
  <defs>
    <clipPath id="a">
      <path fill="#fff" d="M0 0h152v50H0z"/>
    </clipPath>
  </defs>
</svg>
