<svg width="64" height="64" viewBox="0 0 64 64" fill="none" xmlns="http://www.w3.org/2000/svg">
<path d="M31.4298 58.5686C46.5427 58.5686 58.7941 46.3171 58.7941 31.2042C58.7941 16.0913 46.5427 3.83984 31.4298 3.83984C16.3169 3.83984 4.06543 16.0913 4.06543 31.2042C4.06543 46.3171 16.3169 58.5686 31.4298 58.5686Z" fill="white"/>
<path d="M24.2598 46.3379H26.156L25.1842 43.4106L24.2598 46.3379Z" fill="#263082"/>
<path d="M16.9952 43.1855H16.6396V46.1483H17.2678C17.6233 46.1483 17.8959 46.0298 18.1092 45.7928C18.3225 45.5439 18.4292 45.1765 18.4292 44.6906C18.4292 43.6714 17.9551 43.1855 16.9952 43.1855Z" fill="#263082"/>
<path d="M48.5306 47.2743C48.5187 47.4639 48.4831 47.6417 48.4594 47.8195C48.4357 47.9972 48.4239 48.175 48.412 48.3646C48.412 48.4476 48.3646 48.5068 48.258 48.4831C48.1869 48.4594 48.0802 48.4594 47.938 48.4594H44.3945C44.3115 48.4594 44.2523 48.4239 44.2523 48.3765C44.2523 48.3409 44.2641 48.3291 44.2878 48.3054C44.3234 48.2935 44.3589 48.2698 44.3945 48.258C44.4656 48.2224 44.513 48.175 44.513 48.0802C44.5367 47.9972 44.5367 47.8669 44.5367 47.7247V43.6597C44.5367 43.5057 44.5367 43.3753 44.513 43.2923C44.5012 43.2094 44.4656 43.1501 44.3945 43.1146C44.3589 43.1027 44.3234 43.079 44.2878 43.0672C44.2523 43.0435 44.2523 43.0316 44.2523 42.9961C44.2523 42.9605 44.2641 42.9368 44.2878 42.9249C44.3115 42.9131 44.3352 42.9131 44.4063 42.9131H47.8787C48.021 42.9131 48.1276 42.8894 48.1987 42.8894C48.3054 42.8775 48.3528 42.9249 48.3765 43.0079C48.4002 43.0909 48.4002 43.1857 48.4002 43.2568C48.4002 43.3279 48.4002 43.399 48.412 43.4701C48.412 43.5412 48.4357 43.6123 48.4357 43.6834C48.4357 43.7545 48.4476 43.8375 48.4713 43.9323C48.4831 44.039 48.4476 44.0745 48.3883 44.0745C48.3172 44.0864 48.2698 44.039 48.2343 43.956C48.1869 43.8019 48.1513 43.6953 48.0921 43.5886C48.0447 43.5057 47.9854 43.4108 47.938 43.3634C47.8669 43.3042 47.7958 43.2805 47.6891 43.2449C47.6062 43.2331 47.4639 43.2094 47.3217 43.2094H45.8522V45.3426H46.5396C46.7173 45.3426 46.8595 45.3307 46.9662 45.307C47.0729 45.2833 47.1795 45.2478 47.2506 45.2004C47.3217 45.153 47.3691 45.0937 47.4047 45.0226C47.4402 44.9515 47.4521 44.8685 47.4758 44.7737C47.4876 44.6908 47.5232 44.6552 47.5943 44.6552C47.6654 44.6552 47.701 44.7026 47.6773 44.8093C47.6773 44.8804 47.6654 44.9633 47.6654 45.0937V45.9351C47.6654 46.0418 47.6654 46.1248 47.6773 46.1959C47.6891 46.3025 47.6654 46.3499 47.5943 46.3499C47.5232 46.3499 47.4758 46.2907 47.4758 46.2077C47.4521 46.1248 47.4402 46.03 47.4047 45.9588C47.3691 45.8877 47.3217 45.8403 47.2506 45.7811C47.1795 45.7337 47.0966 45.6981 46.9662 45.6744C46.8595 45.6626 46.7173 45.6389 46.5396 45.6389H45.8522V47.8669C45.8522 47.9735 45.864 48.0447 45.9114 48.0921C45.947 48.1276 46.0181 48.1632 46.1248 48.1632H47.3928C47.5469 48.1632 47.6773 48.1395 47.7839 48.1039C47.8906 48.0684 47.9735 48.021 48.0328 47.9261C48.1039 47.855 48.1513 47.7484 48.2106 47.6417C48.258 47.5351 48.2935 47.3928 48.3528 47.2506C48.3646 47.1677 48.4239 47.1321 48.5068 47.1321C48.5543 47.1203 48.578 47.1677 48.578 47.2506M43.1975 23.8209C40.7562 23.3705 39.1681 21.0003 39.6185 18.5589C39.6659 18.2627 39.7607 17.9664 39.8792 17.6819C39.7251 17.7649 39.5829 17.8597 39.417 17.9427C38.3504 18.6656 37.509 19.6611 36.9045 20.9055C36.2883 22.1854 35.8142 24.4727 35.5772 25.7644L33.8351 35.4113C33.5151 37.2008 31.7611 38.6704 29.9479 38.6704H26.1437L26.7244 35.4824C26.5703 35.672 26.4044 35.8735 26.2503 36.0394C25.326 37.0705 24.2119 37.8408 22.932 38.3385C21.6521 38.8244 20.2892 38.9311 18.8671 38.6704H18.8315C16.3902 38.2082 14.8021 35.8498 15.2525 33.4085C15.7147 30.9671 18.073 29.3791 20.5144 29.8294C22.9557 30.2797 24.5438 32.65 24.0934 35.0913C24.046 35.3876 23.9512 35.6839 23.8327 35.9683C23.9868 35.8853 24.129 35.7905 24.2831 35.7076C25.3497 34.9847 26.1911 33.9892 26.7955 32.7448C27.4118 31.4649 27.8858 29.1894 28.1228 27.8858L29.8531 18.239C30.1731 16.4494 31.9271 14.9799 33.7521 14.9799H37.5564L36.9757 18.1678C37.1297 17.9782 37.2956 17.7768 37.4497 17.6227C38.3859 16.5916 39.4881 15.8213 40.768 15.3236C42.048 14.8377 43.4227 14.7073 44.833 14.9917H44.8685C47.3099 15.4539 48.8979 17.8123 48.4476 20.2537C47.9735 22.6594 45.6033 24.2712 43.1857 23.809M41.0762 47.381C41.0051 47.5706 40.8984 47.7721 40.7206 47.938C40.5666 48.1158 40.3295 48.258 40.0333 48.3528C39.737 48.4594 39.3696 48.5068 38.8955 48.5068C38.4689 48.5068 38.1015 48.4594 37.8052 48.3646C37.509 48.2817 37.2838 48.175 37.0823 48.0328C36.8927 47.8906 36.7623 47.7484 36.6912 47.5943C36.6083 47.4402 36.5727 47.2743 36.5727 47.1321C36.5727 46.9899 36.6083 46.8714 36.6912 46.7766C36.7623 46.6699 36.869 46.6225 36.9875 46.5988C37.1416 46.587 37.2719 46.6225 37.343 46.6818C37.426 46.7529 37.4853 46.8595 37.5327 46.978C37.5801 47.0966 37.6156 47.2388 37.6749 47.381C37.7341 47.5351 37.7815 47.6773 37.8645 47.7958C37.9475 47.9143 38.0778 48.0447 38.2319 48.1276C38.3859 48.2106 38.5993 48.2461 38.86 48.2461C39.0733 48.2461 39.2629 48.2106 39.417 48.1276C39.5711 48.0447 39.7014 47.938 39.8081 47.8076C39.891 47.6891 39.9622 47.5232 39.9977 47.3691C40.0333 47.2151 40.0214 47.0492 39.9622 46.9069C39.891 46.7173 39.7725 46.5514 39.5829 46.4329C39.3933 46.3144 39.18 46.2077 38.9548 46.1129C38.7059 46.03 38.4689 45.9233 38.1963 45.8285C37.9356 45.7455 37.6867 45.6152 37.4734 45.4967C37.2601 45.3781 37.0705 45.2122 36.9283 45.0226C36.786 44.833 36.7149 44.5841 36.7031 44.2997C36.7031 44.0508 36.7505 43.8375 36.8453 43.636C36.952 43.4464 37.0942 43.2686 37.2719 43.1264C37.4616 42.9842 37.6749 42.8657 37.9356 42.7946C38.1963 42.7116 38.4808 42.6761 38.8126 42.6761C39.18 42.6761 39.5 42.7116 39.7607 42.7946C40.0214 42.8657 40.2347 42.9724 40.3888 43.0909C40.5429 43.2094 40.6732 43.3397 40.7443 43.4701C40.8154 43.6123 40.851 43.7308 40.8273 43.8612C40.8154 43.9797 40.7799 44.0745 40.6851 44.1575C40.6021 44.2286 40.4955 44.276 40.3532 44.276C40.211 44.276 40.1044 44.2404 40.0214 44.1693C39.9503 44.0982 39.8792 44.0153 39.8436 43.9204C39.7962 43.8138 39.7607 43.7071 39.7251 43.6005C39.6896 43.482 39.6422 43.3753 39.5711 43.2686C39.5 43.162 39.417 43.079 39.2866 43.0079C39.1681 42.9368 38.9904 42.9012 38.777 42.8894C38.5637 42.8657 38.3859 42.9012 38.2319 42.9961C38.0778 43.0909 37.9356 43.1738 37.8408 43.2923C37.7341 43.4108 37.6867 43.5531 37.663 43.6953C37.6512 43.8375 37.663 43.9797 37.7341 44.0982C37.8408 44.2878 38.0186 44.43 38.22 44.5486C38.4334 44.6671 38.6822 44.7737 38.943 44.8804C39.2037 44.987 39.4644 45.07 39.737 45.1648C39.9977 45.2478 40.2466 45.3781 40.4599 45.5204C40.6732 45.6626 40.851 45.8166 40.9814 46.03C41.1236 46.2196 41.171 46.4684 41.171 46.7647C41.1354 46.9188 41.0999 47.0966 41.0525 47.3099M33.0411 47.9735C33.0648 48.0565 33.1122 48.1158 33.1833 48.1276C33.2188 48.1513 33.2544 48.1632 33.2662 48.175C33.2781 48.1869 33.3018 48.2106 33.3018 48.2461C33.3018 48.3172 33.2544 48.3291 33.1596 48.3291C33.0885 48.3291 32.9818 48.3054 32.8633 48.3054H31.9152C31.7967 48.3054 31.69 48.3291 31.6189 48.3291C31.536 48.3291 31.4767 48.3054 31.4767 48.2461C31.4767 48.2106 31.5004 48.1869 31.5123 48.175C31.5241 48.1632 31.5597 48.1395 31.5952 48.1276C31.6663 48.1158 31.7137 48.0447 31.7374 47.9735C31.7493 47.8906 31.773 47.7839 31.773 47.6536V43.4582C31.773 43.316 31.7493 43.2094 31.7374 43.1383C31.7137 43.0553 31.6663 42.9961 31.5952 42.9842C31.5597 42.9605 31.5241 42.9487 31.5123 42.9249C31.5004 42.9131 31.4767 42.8894 31.4767 42.8538C31.4767 42.7827 31.5241 42.7709 31.6189 42.7709C31.69 42.7709 31.7967 42.7946 31.9152 42.7946H32.8633C32.9818 42.7946 33.0885 42.7709 33.1596 42.7709C33.2425 42.7709 33.3018 42.7946 33.3018 42.8538C33.3018 42.8894 33.2781 42.9012 33.2662 42.9249C33.2425 42.9487 33.207 42.9605 33.1833 42.9842C33.1122 42.9961 33.0648 43.0672 33.0411 43.1383C33.0292 43.2212 33.0055 43.3279 33.0055 43.4582V47.6536C33.0174 47.7721 33.0174 47.8787 33.0411 47.9735ZM28.1821 48.3409C28.111 48.3409 28.0043 48.3172 27.8977 48.3172H26.8785C26.7599 48.3172 26.6533 48.3409 26.5822 48.3409C26.4992 48.3409 26.44 48.3172 26.44 48.258C26.44 48.2224 26.4518 48.1987 26.4755 48.1869C26.4874 48.175 26.5229 48.1513 26.5585 48.1395C26.6296 48.1039 26.6651 48.0565 26.6651 47.9854C26.6651 47.9143 26.6414 47.7958 26.594 47.6536L26.2385 46.5633H24.1527L23.9275 47.2862C23.8446 47.5706 23.8209 47.7602 23.8564 47.9024C23.892 48.021 24.0342 48.1158 24.2475 48.1513C24.3305 48.175 24.366 48.2224 24.366 48.2698C24.366 48.3409 24.3186 48.3528 24.2238 48.3528C24.1527 48.3528 24.046 48.3291 23.9038 48.3291H23.169C23.0861 48.3291 22.9913 48.3291 22.9202 48.3528C22.8135 48.3528 22.778 48.3291 22.778 48.2698C22.778 48.2343 22.7898 48.2106 22.8135 48.1987C22.8254 48.1869 22.8609 48.1632 22.9202 48.1513C23.0031 48.1395 23.0979 48.0447 23.169 47.9024C23.2401 47.7602 23.3231 47.5706 23.4179 47.2862L25.0178 42.7472C25.0178 42.7472 25.0297 42.6998 25.0652 42.6761C25.1126 42.6642 25.1837 42.6642 25.2786 42.6998C25.3615 42.7353 25.4682 42.7472 25.5985 42.7827C25.8119 42.8183 25.9541 42.8301 26.0252 42.8301C26.0963 42.842 26.1437 42.8657 26.1437 42.9368L27.8384 47.6891C27.8858 47.8432 27.9214 47.9498 27.9569 48.021C27.9925 48.0921 28.0636 48.1395 28.1465 48.175C28.1821 48.1869 28.2176 48.2106 28.2532 48.2224C28.265 48.2343 28.2887 48.258 28.2887 48.2935C28.3006 48.3291 28.2532 48.3528 28.1702 48.3528M19.6492 48.3528C19.5781 48.3528 19.4596 48.3291 19.2937 48.3291H18.3812C18.2982 48.3291 18.2271 48.3528 18.1678 48.3528C18.0849 48.3646 18.0256 48.3291 18.0256 48.2698C18.0256 48.2461 18.0493 48.2106 18.0612 48.1987C18.0849 48.1869 18.0967 48.1632 18.1323 48.1276C18.1678 48.0921 18.1678 48.021 18.1441 47.9498C18.1323 47.8787 18.0967 47.7721 18.0612 47.6536L17.6227 46.3381H16.639V47.6417C16.639 47.7839 16.6627 47.8906 16.6746 47.9617C16.6865 48.0447 16.7457 48.1039 16.8168 48.1158C16.8524 48.1395 16.8879 48.1513 16.9235 48.175C16.9472 48.1869 16.959 48.2106 16.959 48.2461C16.959 48.3172 16.9116 48.3291 16.8168 48.3291C16.7457 48.3291 16.639 48.3054 16.5205 48.3054H15.5724C15.4539 48.3054 15.3473 48.3291 15.2762 48.3291C15.1695 48.3291 15.1339 48.3054 15.1339 48.2461C15.1339 48.2106 15.1695 48.1632 15.2525 48.1276H15.288C15.3591 48.0921 15.4065 48.0447 15.4065 47.9498C15.4184 47.8669 15.4184 47.7365 15.4184 47.5943V43.5294C15.4184 43.3753 15.4184 43.2449 15.4065 43.162C15.3828 43.079 15.3591 43.0198 15.288 42.9842C15.2525 42.9605 15.2169 42.9486 15.1814 42.9368C15.1458 42.9249 15.1458 42.9012 15.1458 42.8657C15.1458 42.8183 15.1814 42.7827 15.2288 42.7827H17.0538C17.3857 42.7827 17.7175 42.8064 18.0493 42.8538C18.3693 42.9012 18.6656 42.9961 18.9145 43.1383C19.1633 43.2805 19.3767 43.4583 19.5307 43.6834C19.6848 43.9086 19.7559 44.2286 19.7559 44.596C19.7559 44.8211 19.7204 45.0345 19.6729 45.2122C19.6255 45.39 19.5544 45.5441 19.4478 45.6744C19.3411 45.7929 19.2345 45.9233 19.0922 45.9944C18.9737 46.0774 18.8315 46.1485 18.6656 46.2077L19.2582 47.6773C19.3293 47.8313 19.3767 47.9617 19.4478 48.0328C19.5189 48.1039 19.59 48.1513 19.6729 48.175C19.7559 48.2106 19.7915 48.2461 19.7915 48.2935C19.7559 48.3765 19.7085 48.4002 19.6137 48.4002M31.7256 0C14.2096 0 0 14.2096 0 31.7256C0 49.2416 14.2096 63.4512 31.7256 63.4512C49.2416 63.4512 63.4512 49.2416 63.4512 31.7256C63.4512 14.2096 49.2535 0 31.7256 0Z" fill="#263082"/>
</svg>
