<svg width="188" height="80" viewBox="0 0 188 80" fill="none" xmlns="http://www.w3.org/2000/svg">
<path d="M12.8025 44.0883C21.1749 44.0883 25.6933 39.316 25.6933 31.2295V12.8908H19.0485V31.5827C19.0485 35.7809 17.0994 38.388 12.8025 38.388C8.54971 38.388 6.64488 35.7809 6.64488 31.5827V12.8908H0V31.2295C0 39.316 4.4743 44.0883 12.8025 44.0883Z" fill="white"/>
<path d="M51.9629 43.8233V31.2295C51.9629 23.4522 47.7985 20.8444 42.837 20.8444C39.3814 20.8444 37.255 22.1703 35.7932 23.9823L35.2618 21.1101H29.8129V43.8233H36.0589V31.8919C36.0589 28.0035 37.8312 25.9706 41.1537 25.9706C44.2104 25.9706 45.7163 27.9148 45.7163 31.7156V43.8233H51.9629Z" fill="white"/>
<path d="M62.1512 21.1101H55.9052V43.8233H62.1512V21.1101Z" fill="white"/>
<path d="M59.0061 18.4583C60.9551 18.4583 62.4169 17.0001 62.4169 15.1C62.4169 13.1558 60.9551 11.7418 59.0061 11.7418C57.057 11.7418 55.5505 13.1558 55.5505 15.1C55.5505 17.0001 57.057 18.4583 59.0061 18.4583Z" fill="white"/>
<path d="M78.3538 38.5649H75.2529C73.6138 38.5649 72.9934 37.9019 72.9934 36.311V26.3685H78.3538V21.1101H72.9934V14.7468H66.7474V37.3272C66.7474 41.6581 68.918 43.8233 73.2591 43.8233H78.3538V38.5649Z" fill="white"/>
<path d="M92.69 44.0883C98.7586 44.0883 102.79 40.5532 103.499 36.2228H97.2968C96.7654 38.2552 94.9489 39.3601 92.4243 39.3601C89.2786 39.3601 87.0638 37.3718 87.0638 34.1458V33.9248H103.676C103.721 33.1737 103.721 32.5108 103.721 31.8478C103.721 25.1313 99.0249 20.8444 92.2469 20.8444C85.2032 20.8444 80.5515 25.4404 80.5515 32.5108C80.5515 39.537 85.1148 44.0883 92.69 44.0883ZM92.3353 25.4845C95.1705 25.4845 97.0311 27.0314 97.4742 29.7708H87.1522C87.5953 27.0755 89.6775 25.4845 92.3353 25.4845Z" fill="white"/>
<path d="M129.503 12.8908H123.256V23.9382C121.838 22.1263 119.579 20.8444 116.389 20.8444C110.32 20.8444 105.846 25.3964 105.846 32.4226C105.846 39.6252 110.32 44.0883 116.434 44.0883C119.712 44.0883 121.971 42.5861 123.433 40.6413L124.054 43.8233H129.503V12.8908ZM117.807 39.0069C114.396 39.0069 112.225 36.4438 112.225 32.4667C112.225 28.4895 114.396 25.9265 117.807 25.9265C121.174 25.9265 123.344 28.5336 123.344 32.5107C123.344 36.4438 121.174 39.0069 117.807 39.0069Z" fill="white"/>
<path d="M0.020631 79.735H6.66549V67.1853H18.2719V61.75H6.66549V54.5028H20.4867V48.8024H0.020631V79.735Z" fill="white"/>
<path d="M32.8903 56.7567C25.6256 56.7567 20.885 61.3962 20.885 68.3784C20.885 75.3605 25.6256 80 32.8903 80C40.155 80 44.8956 75.3599 44.8956 68.3784C44.8956 61.3968 40.1556 56.7567 32.8903 56.7567ZM32.8903 74.9186C29.3905 74.9186 27.2641 72.2227 27.2641 68.3784C27.2641 64.5341 29.3905 61.8382 32.8903 61.8382C36.3901 61.8382 38.5606 64.5335 38.5606 68.3784C38.5606 72.2233 36.3901 74.9186 32.8903 74.9186Z" fill="white"/>
<path d="M63.412 68.9526C63.412 72.8415 61.6839 74.8739 58.4947 74.8739C55.5711 74.8739 54.0645 72.9297 54.0645 69.1295V57.0218H47.8186V69.6155C47.8186 77.3929 51.9823 80 56.7672 80C60.178 80 62.216 78.6741 63.6336 76.9068L64.165 79.7349H69.658V57.0218H63.412L63.412 68.9526Z" fill="white"/>
<path d="M86.8464 56.7567C83.3908 56.7567 81.2645 58.082 79.8027 59.894L79.2712 57.0218H73.8224V79.735H80.0684V67.8036C80.0684 63.9152 81.8407 61.8823 85.1631 61.8823C88.2198 61.8823 89.7258 63.827 89.7258 67.6273V79.735H95.9724V67.1412C95.9724 59.3639 91.808 56.7567 86.8464 56.7567Z" fill="white"/>
<path d="M116.305 59.8499C114.887 58.0379 112.628 56.7567 109.438 56.7567C103.369 56.7567 98.8947 61.308 98.8947 68.3343C98.8947 75.5368 103.369 80 109.482 80C112.761 80 115.02 78.4978 116.482 76.5536L117.102 79.735H122.551V48.8024H116.305L116.305 59.8499ZM110.856 74.9186C107.445 74.9186 105.274 72.3555 105.274 68.3784C105.274 64.4012 107.445 61.8382 110.856 61.8382C114.222 61.8382 116.394 64.4453 116.394 68.4224C116.394 72.3555 114.222 74.9186 110.856 74.9186Z" fill="white"/>
<path d="M137.128 56.7567C130.084 56.7567 125.432 61.3521 125.432 68.4224C125.432 75.4487 129.996 80 137.571 80C143.64 80 147.671 76.4649 148.38 72.1345H142.178C141.646 74.1669 139.83 75.2718 137.305 75.2718C134.159 75.2718 131.945 73.2835 131.945 70.0575V69.8365H148.557C148.601 69.0854 148.601 68.4225 148.601 67.7595C148.601 61.043 143.906 56.7567 137.128 56.7567ZM132.033 65.6825C132.476 62.9872 134.558 61.3962 137.216 61.3962C140.051 61.3962 141.912 62.9431 142.355 65.6825H132.033Z" fill="white"/>
<path d="M157.77 60.38L157.195 57.0218H151.746V79.7349H157.992V68.5993C157.992 65.1523 159.41 62.678 163.131 62.678H165.611V57.0218H164.327C160.783 57.0218 158.967 58.4358 157.77 60.38Z" fill="white"/>
<path d="M178.016 65.9035C174.693 65.5062 173.098 65.1964 173.098 63.5173C173.098 62.0151 174.56 61.2193 177.041 61.2193C179.655 61.2193 181.338 62.2361 181.515 63.9152H187.496C187.186 59.4079 182.977 56.7567 176.864 56.7567C171.016 56.7567 167.074 59.673 167.074 64.1803C167.074 69.0413 171.371 70.1897 176.864 70.7645C180.186 71.1624 181.825 71.4275 181.825 73.0625C181.825 74.6976 180.186 75.5369 177.528 75.5369C174.516 75.5369 172.788 74.2115 172.567 72.3114H166.586C166.852 77.1278 171.149 80 177.484 80C183.597 80 187.85 77.1278 187.85 72.6206C187.85 67.5385 183.509 66.5223 178.016 65.9035Z" fill="white"/>
<path d="M159.91 10.3913C160.318 10.2804 160.679 10.0849 160.982 9.82961L163.71 19.8071L163.711 19.8067C164.143 21.2635 165.665 22.1155 167.142 21.7139C168.618 21.3122 169.496 19.8074 169.126 18.3335L169.128 18.3331L164.68 2.06459C164.272 0.572219 162.728 -0.307601 161.232 0.099389C160.459 0.309654 159.851 0.822443 159.499 1.47438L156.77 6.23921C156.385 6.87263 156.251 7.65547 156.462 8.42613C156.87 9.9185 158.414 10.7984 159.91 10.3913Z" fill="white"/>
<path d="M141.277 24.7125C141.761 25.2838 142.466 25.6611 143.267 25.7023C144.82 25.7818 146.143 24.5721 146.224 23.0003C146.246 22.572 146.173 22.1614 146.025 21.7885L156.401 22.3201L156.401 22.3186C157.927 22.3638 159.218 21.1663 159.297 19.6152C159.377 18.064 158.217 16.7409 156.694 16.63V16.6284L139.775 15.7615C138.223 15.6819 136.899 16.8915 136.818 18.4632C136.776 19.275 137.075 20.0241 137.587 20.5702L141.277 24.7125Z" fill="white"/>
<path d="M155.845 44.6152C156.41 43.171 155.676 41.5366 154.206 40.9647C153.806 40.8088 153.392 40.7487 152.99 40.7718L156.766 31.1158L156.764 31.1152C157.288 29.6852 156.555 28.0861 155.105 27.5217C153.654 26.9574 152.03 27.6393 151.444 29.0456L151.443 29.045L145.287 44.7895C144.722 46.2338 145.456 47.8683 146.926 48.4402C147.685 48.7355 148.492 48.6889 149.173 48.3764L154.277 46.1878C154.973 45.9097 155.554 45.361 155.845 44.6152Z" fill="white"/>
<path d="M174.643 47.9987C175.834 48.9949 177.621 48.8249 178.635 47.6191C179.159 46.9962 179.373 46.219 179.294 45.4756L178.85 39.9516C178.809 39.2049 178.474 38.48 177.859 37.9656C176.669 36.9694 174.881 37.1394 173.867 38.3451C173.591 38.6738 173.402 39.0455 173.295 39.4324L165.334 32.7721L165.333 32.7733C164.142 31.8205 162.389 32.0007 161.389 33.1907C160.388 34.3807 160.515 36.1343 161.663 37.1376L161.662 37.1389L174.643 47.9987Z" fill="white"/>
<path d="M169.588 26.5066C168.349 27.3951 168.053 29.1283 168.934 30.4088C169.816 31.6893 171.543 32.0369 172.82 31.2026L172.821 31.2039L186.789 21.6399C188.07 20.7625 188.385 18.9994 187.492 17.7019C187.031 17.0318 186.337 16.6176 185.598 16.494L180.144 15.44C179.412 15.2794 178.622 15.4069 177.961 15.8599C176.679 16.7373 176.364 18.5004 177.257 19.7978C177.501 20.1515 177.809 20.4334 178.154 20.6396L169.588 26.5051L169.588 26.5066Z" fill="white"/>
</svg>
